# Blender v2.69 (sub 0) OBJ File: ''
# www.blender.org
o street_lamp
v 0.309460 0.001557 -0.063698
v 0.235908 0.001557 -0.063698
v 0.235908 0.673288 -0.063698
v 0.309460 0.673288 -0.063698
v 0.199131 0.001557 0.000000
v 0.199131 0.673288 0.000000
v 0.235908 0.001557 0.063698
v 0.235908 0.673288 0.063698
v 0.309460 0.001557 0.063698
v 0.309460 0.673288 0.063698
v 0.346237 0.001557 0.000000
v 0.346237 0.673288 0.000000
v 0.247815 0.807475 -0.043074
v 0.297553 0.807475 -0.043074
v 0.222947 0.807475 0.000000
v 0.247815 0.807475 0.043074
v 0.297553 0.807475 0.043074
v 0.322422 0.807475 0.000000
v 0.247815 3.009341 -0.043074
v 0.297553 3.009341 -0.043074
v 0.222947 3.009341 0.000000
v 0.247815 3.009341 0.043074
v 0.297553 3.009341 0.043074
v 0.322422 3.009341 0.000000
v -0.284329 3.048418 0.241438
v 0.332764 2.994430 0.175042
v 0.305632 3.106533 0.139751
v -0.187040 3.149637 0.192759
v 0.305632 3.106533 -0.139749
v -0.187040 3.149637 -0.192757
v 0.332764 2.994430 -0.175042
v -0.284329 3.048418 -0.241438
v -0.220940 2.970470 -0.177183
v 0.156699 2.937431 -0.128457
v 0.156699 2.937431 0.128457
v -0.220940 2.970470 0.177183
v 0.213358 3.005344 -0.162699
v -0.264945 3.047190 -0.224412
v 0.213358 3.005344 0.162699
v -0.264945 3.047190 0.224412
vt 0.978294 0.478585
vt 0.979021 0.539484
vt 0.680081 0.483567
vt 0.978484 0.600380
vt 0.680740 0.538885
vt 0.976773 0.660865
vt 0.680255 0.594204
vt 0.975311 0.720639
vt 0.678428 0.650271
vt 0.974744 0.358313
vt 0.976394 0.418094
vt 0.674081 0.370060
vt 0.678080 0.427491
vt 0.620174 0.491454
vt 0.620637 0.538767
vt 0.618989 0.631594
vt 0.674608 0.707683
vt 0.614405 0.404561
vt 0.988389 0.813606
vt 0.987587 0.853812
vt 0.015660 0.813482
vt 0.988092 0.893930
vt 0.016165 0.853600
vt 0.988600 0.934029
vt 0.016671 0.893804
vt 0.989109 0.974175
vt 0.017181 0.934024
vt 0.987370 0.733209
vt 0.987880 0.773386
vt 0.017239 0.733236
vt 0.015152 0.773382
vt 0.538148 0.615390
vt 0.491379 0.615248
vt 0.468117 0.574676
vt 0.491625 0.534245
vt 0.538392 0.534386
vt 0.561654 0.574957
vt 0.537215 0.431716
vt 0.553027 0.459103
vt 0.489778 0.459104
vt 0.537217 0.486491
vt 0.940577 0.320210
vt 0.587910 0.289190
vt 0.613545 0.236946
vt 0.895100 0.261732
vt 0.895173 0.081783
vt 0.613597 0.106476
vt 0.940665 0.023303
vt 0.420402 0.078236
vt 0.125029 0.108496
vt 0.422681 0.278610
vt 0.547868 0.253397
vt 0.547943 0.089985
vt 0.975128 0.059088
vt 0.975004 0.284485
vt 0.562107 0.056438
vt 0.929725 0.037134
vt 0.562944 0.287018
vt 0.635232 0.073159
vt 0.929154 0.305976
vt 0.486213 0.026959
vt 0.060847 0.068873
vt 0.063333 0.297925
vt 0.489565 0.329213
vt 0.126665 0.252211
vt 0.620322 0.586076
vt 0.614824 0.672944
vt 0.618699 0.445932
vt 0.017690 0.974200
vt 0.505590 0.431716
vt 0.505591 0.486493
vt 0.587987 0.054240
vt 0.635995 0.271509
vn 0.000000 0.000000 -1.000000
vn -0.866020 0.000000 -0.500010
vn -0.866020 -0.000000 0.500010
vn 0.000000 -0.000000 1.000000
vn 0.866020 -0.000000 0.500010
vn 0.866020 0.000000 -0.500010
vn 0.000000 0.151912 -0.988394
vn -0.855969 0.151911 -0.494207
vn -0.855969 0.151912 0.494207
vn 0.000000 0.151912 0.988394
vn 0.855969 0.151911 0.494206
vn 0.855969 0.151912 -0.494206
vn -0.866032 0.000000 -0.499988
vn -0.866032 -0.000000 0.499988
vn 0.866024 -0.000000 0.500003
vn 0.866024 0.000000 -0.500003
vn 0.000000 -1.000000 -0.000000
vn 0.000000 1.000000 0.000000
vn 0.000000 1.000000 0.000007
vn 0.129287 0.326102 0.936452
vn 0.087157 0.996195 0.000000
vn 0.129286 0.326107 -0.936450
vn -0.087155 -0.996195 0.000000
vn 0.971938 0.235235 0.000000
vn -0.720965 0.692972 0.000000
vn -0.090440 -0.995414 0.031173
vn -0.091022 -0.995849 0.000000
vn -0.090440 -0.995414 -0.031182
vn -0.063229 -0.997999 0.000000
vn 0.068583 -0.494183 -0.866648
vn 0.767859 -0.640618 0.000000
vn 0.068583 -0.494183 0.866648
vn -0.867438 -0.497545 0.000000
vn 0.866020 0.000000 -0.500009
vn -0.855980 0.151923 -0.494184
vn -0.855980 0.151922 0.494185
vn 0.855972 0.151915 0.494200
vn 0.855972 0.151915 -0.494200
vn 0.000000 1.000000 0.000014
vn 0.000000 1.000000 -0.000007
vn 0.129286 0.326107 0.936450
vn 0.129287 0.326102 -0.936452
vn 0.971938 0.235236 0.000000
vn -0.720964 0.692972 0.000000
vn -0.089290 -0.995864 0.016780
vn -0.089290 -0.995864 -0.016780
vn 0.068589 -0.494174 -0.866653
vn 0.767860 -0.640618 0.000000
vn 0.068589 -0.494174 0.866653
s off
f 1/1/1 2/2/1 4/3/1
f 2/2/2 5/4/2 3/5/2
f 5/4/3 7/6/3 6/7/3
f 7/6/4 9/8/4 8/9/4
f 9/10/5 11/11/5 10/12/5
f 11/11/6 1/1/6 12/13/6
f 4/3/7 3/5/7 14/14/7
f 3/5/8 6/7/8 13/15/8
f 6/7/9 8/9/9 16/16/9
f 8/9/10 10/17/10 16/16/10
f 10/12/11 12/13/11 17/18/11
f 12/13/12 4/3/12 14/14/12
f 14/19/1 13/20/1 20/21/1
f 13/20/13 15/22/13 19/23/13
f 15/22/14 16/24/14 21/25/14
f 16/24/4 17/26/4 22/27/4
f 17/28/15 18/29/15 23/30/15
f 18/29/16 14/19/16 24/31/16
f 9/32/17 7/33/17 5/34/17
f 2/35/17 1/36/17 11/37/17
f 19/38/18 21/39/18 24/40/18
f 21/39/19 22/41/19 24/40/19
f 25/42/20 26/43/20 27/44/20
f 28/45/21 27/44/21 30/46/21
f 30/46/22 29/47/22 32/48/22
f 33/49/23 34/50/23 36/51/23
f 26/52/24 31/53/24 27/44/24
f 32/54/25 25/55/25 30/46/25
f 32/48/26 31/56/26 38/57/26
f 31/56/27 26/58/27 37/59/27
f 26/58/28 25/42/28 40/60/28
f 25/42/29 32/48/29 40/60/29
f 38/61/30 37/62/30 34/50/30
f 37/62/31 39/63/31 34/50/31
f 39/63/32 40/64/32 35/65/32
f 40/64/33 38/61/33 36/51/33
f 2/2/1 3/5/1 4/3/1
f 5/4/2 6/7/2 3/5/2
f 7/6/3 8/9/3 6/7/3
f 9/8/4 10/17/4 8/9/4
f 11/11/5 12/13/5 10/12/5
f 1/1/34 4/3/34 12/13/34
f 3/5/7 13/15/7 14/14/7
f 6/7/35 15/66/35 13/15/35
f 15/66/36 6/7/36 16/16/36
f 10/17/10 17/67/10 16/16/10
f 12/13/37 18/68/37 17/18/37
f 18/68/38 12/13/38 14/14/38
f 13/20/1 19/23/1 20/21/1
f 15/22/13 21/25/13 19/23/13
f 16/24/14 22/27/14 21/25/14
f 17/26/4 23/69/4 22/27/4
f 18/29/15 24/31/15 23/30/15
f 14/19/16 20/21/16 24/31/16
f 2/35/17 9/32/17 5/34/17
f 9/32/17 2/35/17 11/37/17
f 20/70/39 19/38/39 24/40/39
f 22/41/40 23/71/40 24/40/40
f 28/45/41 25/42/41 27/44/41
f 27/44/21 29/47/21 30/46/21
f 29/47/42 31/72/42 32/48/42
f 34/50/23 35/65/23 36/51/23
f 31/53/43 29/47/43 27/44/43
f 25/55/44 28/45/44 30/46/44
f 31/56/45 37/59/45 38/57/45
f 26/58/27 39/73/27 37/59/27
f 39/73/46 26/58/46 40/60/46
f 32/48/29 38/57/29 40/60/29
f 33/49/47 38/61/47 34/50/47
f 39/63/48 35/65/48 34/50/48
f 40/64/49 36/51/49 35/65/49
f 38/61/33 33/49/33 36/51/33
